 <svg  version="1.0" xmlns="http://www.w3.org/2000/svg"  width="450.000000pt" height="450.000000pt" viewBox="0 0 450.000000 450.000000"  preserveAspectRatio="xMidYMid meet">  <g transform="translate(0.000000,450.000000) scale(0.050000,-0.050000)" fill="#ffffff" stroke="none"> <path d="M4170 8908 c-1627 -168 -2919 -1031 -3618 -2419 -1474 -2925 664 -6391 3942 -6389 3513 2 5615 3943 3661 6860 -869 1296 -2513 2100 -3985 1948z m1051 -116 c3416 -581 4811 -4778 2419 -7280 -2109 -2206 -5783 -1618 -7080 1133 -1496 3175 1203 6734 4661 6147z"/> <path d="M4310 8618 c-164 -38 -255 -102 -220 -157 25 -41 88 -447 110 -711 23 -278 24 -280 86 -333 190 -161 830 -156 1076 8 37 25 133 66 213 91 118 38 145 54 145 87 0 31 -8 38 -35 27 -98 -40 -255 -90 -280 -90 -16 0 -56 -22 -88 -50 -59 -49 -229 -111 -306 -109 -44 0 1 38 56 47 13 2 34 10 48 19 14 8 33 10 44 4 10 -7 28 4 39 24 12 19 21 27 21 18 1 -10 46 31 102 90 74 79 105 100 117 80 12 -19 44 -23 124 -13 111 14 162 38 287 138 95 76 100 65 37 -89 -29 -71 -54 -163 -55 -204 l-1 -76 -50 61 c-67 81 -80 76 -80 -29 0 -193 237 -348 445 -290 54 15 75 32 75 60 0 47 5 46 -100 9 -47 -16 -90 -30 -97 -30 -28 0 73 56 140 78 41 13 125 74 187 135 134 130 156 128 70 -6 -42 -66 -61 -119 -59 -167 4 -105 3 -106 -59 -61 -74 52 -94 16 -46 -81 47 -93 179 -180 292 -193 72 -8 92 -18 92 -47 0 -196 449 -347 678 -229 113 59 281 23 282 -59 0 -52 -90 -157 -191 -221 -192 -123 -95 -263 113 -163 315 151 436 51 231 -192 -197 -231 -206 -387 -34 -569 39 -41 41 -56 25 -178 -37 -276 136 -587 327 -587 99 0 119 136 29 200 -82 59 -140 178 -140 290 l0 91 59 -30 c160 -83 301 21 301 223 0 261 -310 411 -421 205 -29 -55 -4 -90 38 -53 38 33 147 32 187 -1 17 -14 38 -16 56 -5 64 39 83 -135 28 -250 -37 -80 -80 -101 -121 -60 -40 40 -95 39 -79 -1 12 -31 -7 -30 -106 7 -34 13 -20 -220 16 -264 12 -14 16 -31 9 -39 -15 -14 -52 52 -85 151 -18 53 -16 90 9 172 30 101 29 108 -10 163 -23 31 -41 67 -41 79 0 12 -8 22 -19 22 -27 0 -81 118 -81 179 0 32 41 111 100 195 55 79 106 170 113 204 15 77 61 121 79 75 22 -57 -32 -166 -143 -288 -136 -151 -141 -265 -17 -366 32 -27 34 -25 19 21 -46 150 -41 174 70 295 215 235 206 425 -24 525 -110 47 -134 39 -141 -46 -4 -48 -13 -54 -81 -54 -42 0 -107 -13 -146 -29 -38 -16 -69 -20 -69 -10 0 10 8 19 17 19 10 0 41 23 69 52 29 28 62 46 73 39 12 -8 22 -2 22 13 7 152 44 268 79 246 16 -10 4 -71 -30 -155 -11 -28 -4 -35 36 -35 78 0 110 114 61 215 -39 79 -163 164 -242 165 -37 0 -45 11 -45 61 0 182 -276 401 -509 403 -109 1 -247 -50 -265 -98 -32 -82 -231 -108 -277 -37 -41 62 -27 108 74 253 88 126 86 157 -16 205 l-71 34 -103 -106 c-318 -330 -538 -229 -353 162 75 158 75 173 -3 212 -87 43 -127 39 -164 -17 -17 -27 -96 -81 -176 -121 l-143 -71 -42 58 c-108 151 -507 317 -458 190 13 -34 -27 -34 -239 0 -38 6 -55 0 -55 -20 0 -21 -31 -27 -131 -26 -119 2 -170 -8 -147 -30 4 -5 134 -18 288 -29 709 -53 804 -269 144 -327 -134 -12 -286 -16 -337 -8 l-94 14 -12 174 c-7 96 -21 188 -32 204 -40 63 -44 84 -21 127 18 33 19 77 3 174 -11 71 -21 144 -21 162 0 70 371 101 590 50 199 -46 102 -151 -238 -255 -226 -70 -312 -109 -312 -141 0 -12 13 -16 29 -10 40 15 64 -27 29 -49 -31 -19 -25 -20 92 -22 153 -2 162 1 124 29 -30 22 -27 26 29 29 35 3 81 24 103 48 37 39 43 40 64 11 79 -107 376 65 403 233 40 245 -497 433 -943 332z m225 -120 c-152 -22 -275 -56 -275 -75 0 -9 13 -114 29 -234 34 -262 61 -664 44 -647 -12 11 -68 426 -83 618 -4 50 -13 136 -20 193 -17 140 12 159 244 160 171 2 172 1 61 -15z m645 -167 c0 -67 -102 -179 -212 -232 -107 -52 -139 -37 -58 26 94 74 190 177 190 205 0 24 27 44 65 48 8 1 15 -20 15 -47z m-285 -965 c-30 -5 -84 -5 -120 0 -36 4 -11 8 55 8 66 0 95 -4 65 -8z m2029 -200 c-26 -5 -52 -24 -58 -43 -7 -18 -35 -58 -63 -88 -46 -50 -49 -63 -29 -115 12 -33 14 -60 4 -60 -10 0 -18 8 -18 18 0 17 -75 49 -105 44 -8 -1 -15 12 -15 29 0 23 -12 28 -45 19 -39 -10 -40 -9 -10 10 19 12 42 18 51 12 9 -5 60 33 113 85 72 70 114 95 159 97 44 1 49 -1 16 -8z m289 -151 c135 -136 99 -220 -103 -245 -199 -24 -333 112 -224 226 30 31 54 68 54 83 0 56 201 9 273 -64z m243 -197 c21 -1 24 -5 9 -11 -40 -17 -31 -68 10 -52 33 12 33 11 1 -21 -20 -21 -64 -34 -112 -34 -44 0 -111 -13 -151 -30 -105 -44 -135 -37 -43 10 43 22 90 40 104 40 14 0 26 9 26 20 0 11 19 20 41 20 23 0 36 8 30 19 -6 10 -2 24 9 31 12 7 19 33 17 57 -2 23 0 61 3 83 4 22 10 2 15 -45 5 -63 16 -85 41 -87z"/> <path d="M2576 7660 c-168 -91 -183 -232 -39 -385 82 -89 10 -155 -105 -96 -105 54 -218 68 -383 47 l-139 -17 5 -109 c9 -198 -33 -290 -130 -283 -304 22 -482 -390 -286 -662 219 -305 -167 -1154 -504 -1109 -288 39 -360 687 -102 914 89 78 103 66 134 -119 28 -167 112 -264 192 -221 48 25 48 26 19 164 -134 637 -672 498 -713 -184 -39 -646 520 -1030 902 -621 209 224 374 700 334 966 -14 90 -12 94 39 105 153 34 285 273 279 506 -3 98 8 197 30 273 19 65 30 139 25 165 -11 59 257 72 314 15 61 -61 -23 -165 -178 -221 -79 -28 -85 -76 -18 -138 141 -131 408 22 408 235 0 119 113 207 228 178 264 -67 692 45 692 181 0 117 -85 145 -242 82 -97 -39 -283 -84 -433 -105 -3 -1 -5 -14 -5 -31 0 -16 -13 -30 -30 -30 -16 0 -30 -10 -30 -22 0 -13 -22 -16 -55 -9 -77 17 -188 -95 -194 -195 -6 -93 -68 -194 -147 -240 -82 -48 -90 -2 -13 75 61 61 103 155 112 251 4 39 23 88 44 110 72 78 78 128 23 193 -109 131 -43 274 114 244 47 -9 97 -15 111 -14 35 3 32 -137 -5 -226 -38 -91 -39 -87 17 -87 58 0 99 108 89 238 -12 165 -208 264 -360 182z m924 -418 c0 -34 -302 -143 -390 -141 -34 2 -33 5 10 23 28 12 88 39 135 61 47 21 98 40 114 43 17 2 36 10 44 18 20 20 87 17 87 -4z m-1282 -135 c5 -4 -29 -7 -75 -7 l-83 0 0 -78 c0 -43 -18 -136 -40 -206 -29 -97 -35 -145 -21 -193 51 -176 -99 -467 -270 -523 -63 -21 -64 -23 -46 -105 72 -319 -241 -1012 -495 -1096 -96 -31 -106 -11 -28 55 184 156 219 196 297 348 143 276 190 438 191 663 1 107 9 195 18 195 62 0 195 134 242 244 53 121 68 208 32 186 -11 -7 -21 8 -22 34 -1 27 -16 1 -36 -64 -60 -188 -199 -384 -270 -378 -12 0 -11 6 4 11 17 7 21 32 13 76 -26 141 61 312 185 364 37 16 63 35 58 44 -5 8 8 42 30 74 49 73 98 184 98 223 0 123 136 206 218 133z m-479 -432 c-148 -75 -232 -265 -178 -407 12 -32 13 -49 2 -38 -117 121 -34 420 129 469 112 34 136 21 47 -24z m-791 -612 c6 -10 -10 -13 -36 -8 -168 32 -319 -474 -221 -745 36 -100 36 -109 2 -59 -182 264 -47 820 201 828 24 0 48 -7 54 -16z m211 -246 c31 -144 13 -143 -22 1 -16 66 -23 116 -15 111 8 -5 25 -56 37 -112z"/> <path d="M2624 7499 c-52 -48 -52 -45 -13 -120 39 -76 71 -76 56 -1 -9 46 -2 65 31 85 23 15 42 38 42 52 0 39 -67 30 -116 -16z"/> <path d="M6884 5729 c-50 -50 -101 -87 -113 -82 -40 15 -147 -42 -160 -85 -18 -56 -98 -55 -136 3 -24 37 -35 40 -60 19 -29 -24 -98 -18 -348 28 -39 7 -89 0 -132 -21 -38 -18 -110 -35 -160 -38 -50 -3 -103 -15 -118 -27 -15 -12 -63 -37 -107 -55 -44 -18 -110 -62 -146 -97 -36 -35 -70 -62 -75 -59 -13 7 -117 -114 -147 -170 l-23 -45 -81 41 c-44 23 -127 47 -184 53 -57 7 -125 29 -152 49 -58 45 -187 49 -222 7 -14 -16 -53 -30 -88 -30 -34 0 -92 -9 -129 -19 -59 -17 -65 -15 -53 15 24 64 20 71 -55 89 -50 13 -75 30 -75 53 0 47 -39 82 -92 82 -24 0 -54 14 -68 30 -33 39 -93 38 -116 -2 -14 -26 -22 -21 -43 31 -59 142 -189 199 -219 96 -10 -36 -19 -49 -20 -30 -5 91 -176 112 -209 25 -9 -23 -26 -29 -54 -20 -109 35 -211 -90 -135 -166 19 -19 6 -24 -56 -24 -45 0 -131 -9 -193 -21 -96 -18 -129 -15 -235 21 -192 65 -322 0 -362 -179 -29 -129 -130 -250 -253 -301 -131 -55 -147 -112 -25 -92 l79 12 -12 -59 c-52 -261 194 -478 672 -591 428 -100 707 -229 1071 -490 211 -152 229 -160 587 -268 476 -144 645 -249 792 -490 88 -146 138 -190 271 -242 61 -24 196 -94 300 -157 302 -180 478 -156 541 73 14 52 47 114 72 138 52 48 60 105 23 142 -38 38 -18 179 36 258 84 124 47 377 -60 418 -77 30 -196 231 -159 271 32 35 32 45 3 135 l-31 97 98 172 c53 95 97 191 97 215 0 29 9 39 29 31 22 -8 33 9 41 63 34 218 38 231 88 234 57 4 102 59 102 123 0 25 18 76 40 112 44 71 51 138 21 194 -17 31 -7 41 71 71 88 33 288 210 288 253 0 22 -72 15 -147 -14 -34 -14 -34 -10 5 66 111 218 71 300 -74 154z m-85 -225 c19 -7 24 3 16 33 -13 49 15 59 33 12 31 -81 -119 -238 -179 -188 -86 71 -79 133 23 200 58 38 58 38 69 -5 5 -24 22 -47 38 -52z m-3149 36 c-6 -10 4 -63 23 -116 41 -116 23 -209 -23 -124 -44 80 -60 221 -28 242 36 23 43 22 28 -2z m2578 -10 c42 -3 84 -17 92 -30 11 -18 24 -18 56 2 49 31 176 -26 195 -86 6 -19 42 -80 80 -135 38 -55 69 -114 69 -131 0 -61 -115 51 -157 152 -57 137 -106 155 -267 103 -69 -23 -150 -46 -179 -53 -60 -13 -88 -74 -109 -235 -9 -68 -26 -108 -52 -124 -22 -12 -57 -57 -78 -98 -23 -45 -53 -75 -75 -75 -83 0 -187 -240 -145 -333 12 -27 22 -73 23 -103 2 -119 144 -363 213 -364 13 0 29 -8 35 -18 25 -41 -278 85 -384 160 -137 95 -122 72 -220 358 -162 473 -171 590 -46 630 23 7 47 35 53 63 9 32 23 46 42 38 15 -6 23 -2 16 9 -7 11 -1 20 13 20 14 0 55 33 91 74 59 65 66 68 66 30 0 -54 32 -57 59 -6 15 28 14 41 -4 47 -27 10 178 75 238 76 20 0 60 14 87 30 33 20 77 26 130 18 44 -7 115 -15 158 -19z m-2428 -122 c21 -62 10 -128 -21 -128 -24 0 -38 28 -66 136 l-25 97 46 -22 c25 -11 55 -49 66 -83z m-503 11 c6 -41 3 -44 -25 -21 -38 32 -43 89 -7 77 14 -4 28 -29 32 -56z m252 9 c39 -39 31 -75 -18 -85 -20 -4 -30 2 -23 13 20 33 -10 84 -49 84 -20 0 -46 -16 -57 -35 -10 -19 -25 -28 -33 -20 -26 25 35 75 92 75 31 0 71 -15 88 -32z m3371 -3 c-1 -8 -39 -41 -85 -74 l-85 -58 50 58 c72 84 121 114 120 74z m-374 -164 c31 -60 74 -121 95 -136 41 -28 52 -94 20 -114 -10 -6 -24 -2 -31 10 -9 14 -29 11 -61 -10 -61 -40 -67 -39 -56 6 34 127 -174 157 -284 42 -31 -32 -69 -59 -84 -59 -15 0 -42 -27 -61 -59 -21 -36 -53 -62 -84 -65 -82 -10 -82 -96 0 -96 98 0 74 -68 -27 -76 -81 -7 -81 -7 -51 -124 6 -23 -8 -29 -67 -24 -64 5 -75 0 -75 -35 0 -27 13 -41 38 -41 46 0 109 -92 93 -134 -17 -44 7 -109 34 -93 13 8 15 4 7 -10 -20 -33 64 -163 105 -163 18 0 45 18 59 41 18 30 38 37 68 28 38 -12 41 -8 30 47 -10 50 -3 66 37 93 27 17 49 49 49 71 0 21 18 69 40 105 l40 65 0 -55 c0 -55 -72 -213 -144 -318 -20 -29 -36 -76 -36 -105 0 -72 -69 -85 -181 -33 -49 23 -73 38 -54 32 19 -5 35 -2 35 8 0 33 -41 45 -69 22 -21 -18 -41 -9 -88 42 l-60 65 43 21 c96 48 47 226 -56 206 -131 -25 -93 298 42 354 37 16 68 39 68 50 0 12 35 60 77 106 66 73 79 102 89 203 14 139 87 249 87 131 0 -67 31 -98 99 -99 69 0 115 68 102 151 l-12 71 84 -6 c80 -6 87 -12 140 -115z m-3162 57 c262 -56 656 -484 656 -714 0 -49 -368 -232 -572 -284 -606 -156 -1328 65 -1328 407 l0 93 135 0 c187 -1 654 -71 775 -116 175 -67 388 -114 411 -91 93 93 -470 341 -791 349 l-100 2 130 28 c158 35 340 120 340 160 0 24 -8 25 -44 6 -34 -18 -46 -18 -52 0 -4 13 -30 49 -56 81 l-49 58 115 13 c64 7 125 16 136 20 44 15 194 9 294 -12z m2912 -43 c-8 -61 -136 -80 -136 -20 0 52 17 65 85 65 48 0 57 -7 51 -45z m-2140 -67 c7 -85 -263 -212 -290 -136 -9 27 133 88 204 88 28 0 50 9 50 20 0 30 -112 24 -194 -10 -80 -34 -105 -25 -73 26 52 84 296 94 303 12z m-1454 8 c81 -45 103 -95 43 -98 -21 -1 -25 -5 -10 -11 77 -31 -56 -87 -208 -87 -138 0 -151 11 -102 93 22 39 53 75 68 81 15 6 27 23 27 38 0 42 94 34 182 -16z m1114 -41 c4 -30 -3 -55 -15 -55 -11 0 -21 18 -21 41 0 23 -19 48 -45 59 -41 18 -40 19 15 15 49 -4 61 -15 66 -60z m675 -69 c42 -166 309 -149 309 19 0 32 10 36 65 25 325 -66 347 -116 96 -212 -171 -66 -367 -72 -544 -18 -353 107 -379 187 -75 237 60 10 113 19 119 21 7 1 20 -31 30 -72z m1985 -52 c28 -33 20 -83 -20 -128 -18 -20 -35 -58 -39 -86 -5 -34 -19 -50 -47 -50 -43 0 -48 -34 -20 -138 16 -57 15 -58 -29 -27 -40 28 -53 28 -147 -5 -99 -35 -149 -80 -88 -80 20 0 27 -13 20 -39 -7 -25 8 -56 42 -87 67 -62 65 -91 -6 -159 -52 -49 -62 -52 -89 -25 -17 16 -38 30 -48 30 -53 0 -72 100 -28 146 45 49 57 94 23 94 -11 0 -20 -15 -20 -34 0 -25 -6 -28 -22 -12 -28 28 14 113 46 93 14 -8 16 -4 7 12 -18 29 26 121 57 121 12 0 23 28 24 62 1 34 15 70 30 80 20 12 21 17 3 18 -14 0 -25 10 -25 21 0 12 10 15 21 8 12 -7 37 1 55 19 19 17 61 56 93 86 32 31 75 53 95 50 20 -4 42 8 48 25 15 38 36 40 64 5z m-4110 -62 c24 -6 71 -13 104 -15 33 -2 -7 -9 -90 -16 -180 -13 -179 -14 -118 51 36 39 50 44 54 22 3 -17 26 -35 50 -42z m1905 -85 c116 -52 131 -58 185 -64 15 -2 22 -10 16 -20 -6 -9 2 -16 18 -16 16 0 25 5 21 11 -4 7 75 13 176 13 101 1 201 8 223 17 32 13 34 11 10 -6 -26 -18 -25 -21 5 -22 19 0 35 13 35 28 0 34 48 55 95 39 25 -8 28 -5 9 8 -19 13 -12 24 28 42 65 30 53 48 116 -174 30 -103 80 -258 112 -345 31 -87 54 -158 49 -158 -179 0 -1128 452 -1327 632 -4 4 4 34 18 68 23 55 29 58 58 31 19 -16 87 -54 153 -84z m2314 4 c-11 -59 -62 -83 -79 -38 -8 20 2 43 25 60 52 39 65 34 54 -22z m-3812 -53 c86 -12 244 -52 351 -89 337 -115 317 -146 -24 -36 -191 61 -485 107 -690 107 -111 0 -151 7 -130 20 40 26 300 25 493 -2z m1357 -86 c25 -19 30 -31 14 -31 -43 -1 -19 -83 37 -125 30 -22 65 -32 85 -25 51 20 41 46 -21 53 -40 4 -57 19 -61 52 -7 43 1 40 130 -39 210 -129 595 -306 816 -375 321 -101 419 -152 295 -156 -30 0 -84 -2 -119 -4 -35 -1 -77 -16 -93 -32 -27 -27 -42 -19 -137 75 -177 174 -604 368 -859 389 l-134 12 11 66 c8 46 -2 88 -31 138 -45 76 -29 76 67 2z m2363 3 c-6 -25 -17 -92 -24 -150 -14 -102 -37 -141 -43 -70 -2 19 -7 67 -11 105 -5 43 4 87 23 114 41 58 69 58 55 1z m-175 -212 c30 -54 -25 -123 -98 -123 -66 0 -88 24 -71 77 23 73 138 104 169 46z m-1948 -83 c155 -40 516 -215 646 -314 95 -72 120 -134 80 -202 -43 -73 -35 -289 14 -394 75 -160 74 -157 8 -102 -93 79 -208 35 -222 -83 l-6 -55 -41 40 c-52 52 -108 78 -283 132 -79 25 -140 52 -135 59 5 8 -46 24 -112 36 -67 12 -169 49 -227 82 -58 33 -113 54 -122 46 -9 -8 -11 -6 -5 5 12 22 -375 287 -479 329 -142 56 -151 115 -19 129 29 3 59 11 66 19 8 7 31 13 51 13 55 0 357 161 419 223 87 87 148 93 367 37z m1459 -131 c37 -38 39 -53 7 -85 -60 -60 -147 24 -93 90 29 34 47 33 86 -5z m-104 -348 c274 -70 739 -418 514 -385 -32 5 -84 -1 -117 -12 -50 -18 -61 -16 -67 12 -5 20 -19 -1 -35 -51 -44 -140 11 -276 205 -509 55 -66 107 -111 119 -103 14 8 9 22 -15 40 -20 15 -27 27 -14 27 12 0 37 6 56 13 43 17 24 -87 -32 -180 -27 -43 -34 -84 -27 -142 26 -205 -106 -288 -302 -192 -544 269 -733 551 -789 1181 -11 127 -26 250 -33 273 -9 35 -2 46 35 53 123 23 361 11 502 -25z m430 -63 c61 2 63 0 41 -48 l-22 -49 -72 42 c-100 60 -124 86 -62 67 28 -8 79 -14 115 -12z m-1072 -511 c21 -19 37 -61 37 -96 0 -35 11 -74 25 -88 14 -14 -24 -3 -85 25 -114 53 -147 106 -99 163 32 38 77 37 122 -4z m1238 -28 c10 -16 18 -56 18 -89 0 -46 -4 -53 -19 -30 -17 27 -19 27 -20 0 -1 -25 -4 -25 -18 -2 -10 16 -28 21 -43 11 -19 -11 -22 -6 -12 19 7 20 13 56 13 82 0 52 51 57 81 9z"/> <path d="M5974 5427 c-25 -25 -15 -46 16 -34 36 14 41 -25 5 -41 -14 -6 -7 -9 15 -6 25 3 40 20 40 44 0 39 -50 64 -76 37z"/> <path d="M5581 5103 c-27 -51 -27 -103 -1 -103 11 0 20 17 20 39 0 21 9 44 21 51 13 9 16 -6 7 -43 -9 -39 -7 -51 8 -37 11 11 24 42 27 70 9 62 -51 79 -82 23z"/> <path d="M5367 4489 c-7 -18 -2 -42 10 -54 17 -17 23 -13 23 16 1 33 4 34 20 9 16 -24 19 -21 20 15 0 52 -55 62 -73 14z"/> <path d="M5613 4247 c-21 -22 -15 -71 7 -57 11 7 20 -4 21 -24 0 -35 1 -35 21 0 33 57 -7 123 -49 81z"/> <path d="M6474 5247 c-25 -24 -15 -101 16 -127 24 -20 32 -19 41 6 27 70 -17 162 -57 121z"/> <path d="M6071 5121 c-20 -31 6 -61 52 -61 27 0 38 11 33 35 -7 40 -66 58 -85 26z"/> <path d="M3290 5152 c-69 -105 60 -182 151 -91 65 65 44 128 -45 135 -60 5 -80 -3 -106 -44z"/> <path d="M2302 4762 c-54 -54 -53 -74 8 -114 87 -57 235 37 166 104 -51 50 -130 54 -174 10z"/> <path d="M3624 4756 c-38 -38 -28 -111 20 -145 122 -85 285 37 185 138 -37 37 -171 41 -205 7z"/> <path d="M2856 4525 c-80 -93 -56 -145 65 -145 114 0 180 91 115 156 -36 36 -145 29 -180 -11z"/> <path d="M4249 4419 c-16 -27 5 -116 43 -174 37 -57 147 -62 195 -8 39 43 45 131 8 118 -14 -5 -22 -23 -19 -41 3 -18 -14 -42 -37 -54 -66 -36 -139 22 -139 110 0 68 -24 91 -51 49z"/> <path d="M3893 4227 c-25 -26 -13 -47 27 -47 41 0 120 -65 120 -99 0 -73 -102 -99 -160 -41 -52 52 -64 50 -56 -5 13 -93 197 -98 239 -6 47 104 -97 271 -170 198z"/> <path d="M4871 3996 c-52 -75 -16 -276 50 -276 26 0 24 23 -12 109 -41 99 -23 151 52 151 39 0 59 10 59 30 0 49 -112 38 -149 -14z"/> <path d="M4455 3778 c-19 -11 -35 -33 -35 -49 0 -35 33 -39 44 -6 15 45 117 -2 159 -74 41 -70 77 -90 77 -44 -1 106 -164 221 -245 173z"/> <path d="M5820 3851 c0 -61 72 -131 134 -131 56 0 63 67 15 136 -46 65 -149 62 -149 -5z"/> <path d="M5439 3627 c-22 -57 5 -175 46 -200 30 -19 95 67 95 127 0 121 -103 174 -141 73z"/> <path d="M5759 3029 c-41 -109 54 -233 130 -169 36 29 41 124 10 181 -31 59 -115 51 -140 -12z"/> <path d="M7972 5531 c-17 -27 -32 -58 -32 -68 0 -17 61 -51 69 -38 2 3 19 30 38 61 58 93 -14 137 -75 45z"/> <path d="M8011 5381 c-13 -21 66 -71 84 -53 13 13 -33 72 -56 72 -9 0 -22 -9 -28 -19z"/> <path d="M1984 5165 c7 -66 126 -94 148 -36 18 47 -29 91 -96 91 -52 0 -58 -6 -52 -55z"/> <path d="M1920 5060 c-30 -57 6 -100 83 -100 106 0 94 96 -17 129 -32 10 -49 2 -66 -29z"/> <path d="M689 3898 c-71 -114 -2 -305 90 -249 35 22 24 51 -19 51 -22 0 -40 13 -40 30 0 17 14 30 30 30 17 0 30 9 30 20 0 11 -13 20 -30 20 -16 0 -30 14 -30 30 0 17 7 30 16 30 9 0 34 13 55 29 37 28 36 30 -25 30 -35 1 -70 -9 -77 -21z"/> <path d="M851 3881 c-42 -47 -39 -71 14 -107 45 -30 45 -31 5 -61 -47 -35 -24 -71 26 -40 47 29 55 109 14 140 -46 33 -21 67 49 67 65 0 89 -55 68 -158 -7 -39 -4 -62 10 -62 27 0 51 123 34 176 -9 31 -1 41 40 49 50 10 52 8 49 -93 -2 -56 -3 -109 -2 -118 3 -26 120 44 143 87 27 51 8 113 -42 140 -66 35 -372 20 -408 -20z m399 -81 c0 -26 -11 -50 -25 -55 -16 -5 -25 13 -25 55 0 42 9 60 25 55 14 -5 25 -29 25 -55z"/> <path d="M7733 3907 c-22 -23 -14 -47 16 -47 61 0 52 -45 -22 -110 -91 -79 -75 -116 44 -106 96 8 120 56 27 56 l-65 0 53 56 c64 66 69 115 15 143 -45 25 -50 25 -68 8z"/> <path d="M8093 3862 c-28 -51 -31 -71 -12 -83 15 -9 19 -34 11 -67 -8 -31 -4 -52 8 -52 33 0 43 45 36 162 l-6 108 -37 -68z"/> <path d="M7935 3878 c-38 -22 -63 -121 -45 -179 20 -61 113 -46 138 23 35 103 -20 196 -93 156z m61 -102 c4 -31 -5 -55 -24 -63 -37 -14 -52 6 -42 58 4 22 8 47 8 56 4 38 53 -4 58 -51z"/> <path d="M8180 3883 c0 -11 18 -26 40 -33 46 -15 54 -70 10 -70 -16 0 -30 -9 -30 -20 0 -11 10 -20 22 -20 14 0 17 -19 9 -52 -9 -38 -6 -50 13 -43 14 4 29 25 33 46 4 21 22 49 40 63 23 17 25 25 7 25 -16 1 -23 22 -20 56 5 49 -1 56 -59 61 -36 4 -65 -2 -65 -13z"/> <path d="M7480 2854 c-76 -38 -73 -161 4 -170 104 -12 183 130 97 175 -47 26 -40 26 -101 -5z"/> <path d="M1438 2847 c-94 -25 -93 -170 1 -184 92 -13 170 105 110 166 -32 31 -50 34 -111 18z"/> <path d="M1691 2653 c-59 -59 -65 -129 -21 -254 22 -60 24 -93 10 -107 -29 -29 -125 26 -132 75 -13 93 -93 134 -121 63 -58 -151 221 -342 333 -230 59 59 37 325 -24 288 -11 -7 -17 3 -13 25 12 64 94 57 167 -13 99 -96 203 -32 114 70 -115 131 -234 162 -313 83z"/> <path d="M7100 2606 c-203 -74 -167 -189 182 -574 30 -33 119 25 149 97 117 280 -83 568 -331 477z m141 -136 c99 -52 146 -183 97 -273 -25 -47 -129 25 -110 75 5 13 -10 41 -34 61 l-44 37 39 -50 c22 -27 2 -14 -45 29 -97 92 -99 98 -39 127 61 29 68 29 136 -6z"/> <path d="M2060 2405 c-16 -6 -37 -22 -45 -36 -8 -14 -69 -99 -135 -188 -117 -158 -153 -261 -92 -261 16 0 78 70 138 155 60 85 128 172 151 193 25 22 43 62 43 95 0 58 -7 63 -60 42z"/> <path d="M6751 2276 c-142 -203 215 -672 369 -486 44 53 9 346 -36 301 -5 -5 -35 31 -67 81 -36 56 -84 101 -127 119 -91 38 -102 37 -139 -15z m174 -151 c121 -126 139 -280 26 -229 -47 22 -170 208 -171 259 0 45 91 26 145 -30z"/> <path d="M2125 2171 c-169 -75 -245 -357 -123 -459 68 -58 83 -61 139 -31 75 40 49 109 -47 127 -65 11 -94 28 -94 54 0 11 9 15 20 8 11 -7 14 1 8 19 -7 17 -3 31 8 31 12 0 40 32 64 70 50 81 108 91 184 31 69 -54 136 -34 136 41 0 102 -170 164 -295 109z"/> <path d="M6524 2026 c-140 -27 -93 -359 73 -515 126 -118 283 -10 252 173 -8 51 -19 72 -29 56 -11 -18 -19 -13 -29 17 -27 85 -180 288 -211 280 -5 -1 -31 -6 -56 -11z m123 -205 c96 -107 125 -241 52 -241 -40 0 -144 119 -131 151 6 17 4 26 -6 20 -23 -14 -70 100 -53 128 24 39 66 21 138 -58z"/> <path d="M2475 2006 c-19 -5 -35 -17 -35 -26 0 -10 -54 -98 -120 -197 -126 -188 -130 -197 -102 -240 19 -30 102 1 102 39 0 27 140 246 163 255 30 11 81 125 69 155 -11 29 -17 30 -77 14z"/> <path d="M2657 1887 c-42 -12 -297 -372 -297 -420 1 -120 270 -234 309 -131 15 38 -53 104 -107 104 -76 0 -104 45 -61 97 21 26 39 40 39 31 0 -9 41 40 90 108 50 68 90 146 90 174 0 50 -3 52 -63 37z"/> <path d="M6160 1809 c-125 -101 -139 -126 -95 -173 14 -15 56 -85 94 -156 125 -238 159 -283 207 -276 88 12 50 163 -51 201 -54 21 -42 50 45 105 81 51 89 64 69 115 -15 38 -96 22 -141 -27 -47 -52 -77 -48 -106 15 -19 43 -19 57 2 71 14 9 56 36 92 59 47 29 64 54 60 84 -10 68 -77 60 -176 -18z"/> <path d="M2920 1707 c-28 -8 -240 -417 -240 -463 0 -76 92 -39 121 48 12 38 34 80 49 95 46 46 153 276 142 305 -11 28 -18 30 -72 15z"/> <path d="M3102 1509 c-36 -50 -87 -105 -114 -122 -26 -17 -48 -43 -48 -58 0 -14 -22 -53 -50 -85 -51 -61 -65 -132 -30 -154 33 -21 95 26 117 90 43 124 132 74 97 -55 -27 -104 -3 -142 66 -105 39 21 43 35 32 107 -9 60 -7 75 8 53 15 -21 17 -5 7 58 -8 55 -6 84 6 76 12 -7 16 13 11 50 -6 38 -2 57 11 49 22 -14 53 138 34 168 -26 43 -86 14 -147 -72z"/> <path d="M5675 1534 c-163 -74 -207 -216 -48 -155 49 19 51 16 73 -95 63 -316 88 -360 165 -286 21 20 -61 341 -96 376 -45 45 -36 59 60 86 90 25 119 57 98 110 -17 45 -101 33 -252 -36z"/> <path d="M3324 1233 c-98 -260 -107 -323 -39 -302 58 18 53 10 65 104 26 210 61 186 102 -70 28 -177 89 -130 200 154 112 285 114 338 13 299 -25 -9 -45 -30 -45 -47 0 -61 -106 -296 -120 -268 -26 49 -44 242 -21 228 13 -8 21 13 21 55 0 59 -7 69 -46 69 -40 0 -57 -28 -130 -222z"/> <path d="M5340 1424 c-61 -30 -70 -44 -68 -104 4 -155 55 -480 75 -480 62 0 252 69 262 95 33 86 -22 114 -135 68 -81 -33 -94 -29 -94 25 0 38 13 52 59 62 137 30 133 138 -4 127 -125 -10 -138 70 -16 103 66 17 81 30 81 69 0 75 -54 87 -160 35z"/> <path d="M5023 1355 l-67 -22 14 -271 c8 -150 18 -275 21 -279 19 -21 197 25 230 58 66 66 30 104 -84 89 -125 -18 -146 51 -28 90 118 39 111 120 -11 120 -114 0 -110 66 7 105 68 23 86 39 91 82 7 60 -45 69 -173 28z"/> <path d="M4058 1309 c-118 -62 -117 -184 2 -269 33 -23 60 -51 60 -62 0 -35 -129 -99 -190 -93 -65 5 -98 -65 -52 -111 54 -54 296 21 341 105 26 48 27 161 1 201 -15 24 -19 24 -20 2 0 -17 -20 -8 -53 25 -29 29 -61 53 -71 53 -10 0 -13 9 -6 20 7 11 30 20 52 20 22 0 47 20 57 45 11 27 19 33 20 15 2 -24 6 -23 23 5 41 70 -62 98 -164 44z"/> <path d="M4653 1292 c-37 -56 -65 -562 -32 -582 31 -20 99 29 99 71 0 21 -9 39 -20 39 -11 0 -20 33 -20 73 l0 74 80 -112 c62 -87 88 -109 120 -101 57 15 52 97 -9 137 -93 61 -119 123 -75 179 21 27 46 42 55 34 8 -8 9 -3 2 10 -8 13 -5 29 7 36 26 16 26 102 -1 151 -32 60 -165 54 -206 -9z m127 -84 c0 -7 -22 -39 -50 -72 l-50 -59 0 58 c0 32 6 64 13 72 17 16 87 17 87 1z"/> <path d="M4340 1282 c-106 -14 -138 -105 -42 -119 l48 -7 -13 -217 c-13 -232 -9 -244 64 -216 47 17 47 22 40 226 l-8 209 69 6 c56 5 72 16 83 59 21 76 -27 88 -241 59z"/> </g> </svg> 